<svg width="20" height="20" viewBox="0 0 20 20" fill="none" xmlns="http://www.w3.org/2000/svg">
<path d="M17.3827 6.97488L11.6077 2.35822C10.7161 1.64155 9.27439 1.64155 8.39106 2.34988L2.61605 6.97488C1.96605 7.49155 1.54939 8.58318 1.69105 9.39984L2.79939 16.0332C2.99939 17.2165 4.13272 18.1748 5.33272 18.1748H14.6661C15.8577 18.1748 16.9994 17.2082 17.1994 16.0332L18.3077 9.39984C18.4411 8.58318 18.0244 7.49155 17.3827 6.97488ZM9.9994 12.9165C8.8494 12.9165 7.91605 11.9832 7.91605 10.8332C7.91605 9.68318 8.8494 8.74984 9.9994 8.74984C11.1494 8.74984 12.0827 9.68318 12.0827 10.8332C12.0827 11.9832 11.1494 12.9165 9.9994 12.9165Z" fill="#F5E8E4"/>
</svg>
