<svg width="20" height="20" viewBox="0 0 20 20" fill="none" xmlns="http://www.w3.org/2000/svg">
<g clip-path="url(#clip0_99_529)">
<path d="M3.33333 9.16667H9.16667V3.33333H3.33333V9.16667ZM5 5H7.5V7.5H5V5ZM16.6667 3.33333H10.8333V9.16667H16.6667V3.33333ZM15 7.5H12.5V5H15V7.5ZM3.33333 16.6667H9.16667V10.8333H3.33333V16.6667ZM5 12.5H7.5V15H5V12.5ZM2.5 18.3333H5.83333V20H2.5C1.12167 20 0 18.8783 0 17.5V14.1667H1.66667V17.5C1.66667 17.9592 2.04083 18.3333 2.5 18.3333ZM18.3333 14.1667H20V17.5C20 18.8783 18.8783 20 17.5 20H14.1667V18.3333H17.5C17.9592 18.3333 18.3333 17.9592 18.3333 17.5V14.1667ZM20 2.5V5.83333H18.3333V2.5C18.3333 2.04083 17.9592 1.66667 17.5 1.66667H14.1667V0H17.5C18.8783 0 20 1.12167 20 2.5ZM1.66667 5.83333H0V2.5C0 1.12167 1.12167 0 2.5 0H5.83333V1.66667H2.5C2.04083 1.66667 1.66667 2.04083 1.66667 2.5V5.83333ZM10.8333 14.1667H13.3333V16.6667H10.8333V14.1667ZM14.1667 13.3333V10.8333H16.6667V13.3333H14.1667ZM10.8333 10.8333H13.3333V13.3333H10.8333V10.8333Z" fill="#BB8D16"/>
</g>
<defs>
<clipPath id="clip0_99_529">
<rect width="20" height="20" fill="white"/>
</clipPath>
</defs>
</svg>
