<svg width="20" height="20" viewBox="0 0 20 20" fill="none" xmlns="http://www.w3.org/2000/svg">
<path d="M14.1667 10V13.3333C14.1667 13.5543 14.0789 13.7663 13.9226 13.9226C13.7663 14.0789 13.5543 14.1667 13.3333 14.1667H10" stroke="white" stroke-width="2" stroke-linecap="round" stroke-linejoin="round"/>
<path d="M14.1667 2.5H15.8334C16.2754 2.5 16.6993 2.67559 17.0119 2.98816C17.3244 3.30072 17.5 3.72464 17.5 4.16667V5.83333" stroke="white" stroke-width="2" stroke-linecap="round" stroke-linejoin="round"/>
<path d="M14.1667 6.66668V5.83334" stroke="white" stroke-width="2" stroke-linecap="round" stroke-linejoin="round"/>
<path d="M17.5 14.1667V15.8333C17.5 16.2754 17.3244 16.6993 17.0119 17.0118C16.6993 17.3244 16.2754 17.5 15.8334 17.5H14.1667" stroke="white" stroke-width="2" stroke-linecap="round" stroke-linejoin="round"/>
<path d="M2.5 5.83333V4.16667C2.5 3.72464 2.67559 3.30072 2.98816 2.98816C3.30072 2.67559 3.72464 2.5 4.16667 2.5H5.83333" stroke="white" stroke-width="2" stroke-linecap="round" stroke-linejoin="round"/>
<path d="M5.83331 14.1667H5.84165" stroke="white" stroke-width="2" stroke-linecap="round" stroke-linejoin="round"/>
<path d="M5.83333 17.5H4.16667C3.72464 17.5 3.30072 17.3244 2.98816 17.0118C2.67559 16.6993 2.5 16.2754 2.5 15.8333V14.1667" stroke="white" stroke-width="2" stroke-linecap="round" stroke-linejoin="round"/>
<path d="M9.16665 5.83334H6.66665C6.20641 5.83334 5.83331 6.20644 5.83331 6.66668V9.16668C5.83331 9.62691 6.20641 10 6.66665 10H9.16665C9.62688 10 9.99998 9.62691 9.99998 9.16668V6.66668C9.99998 6.20644 9.62688 5.83334 9.16665 5.83334Z" stroke="white" stroke-width="2" stroke-linecap="round" stroke-linejoin="round"/>
</svg>
