<svg width="20" height="20" viewBox="0 0 20 20" fill="none" xmlns="http://www.w3.org/2000/svg">
<path d="M2.54577 10.8333C2.51552 10.5597 2.5 10.2817 2.5 10C2.5 5.85787 5.85787 2.5 10 2.5C12.3561 2.5 14.4583 3.58639 15.8333 5.28556M17.4543 9.16667C17.4845 9.44025 17.5 9.71833 17.5 10C17.5 14.1422 14.1422 17.5 10 17.5C7.64394 17.5 5.54163 16.4136 4.16667 14.7144" stroke="#A61A17" stroke-width="1.67" stroke-linecap="round" stroke-linejoin="round"/>
<path d="M13.3333 5.83333H14.1666C15.3451 5.83333 15.9344 5.83333 16.3006 5.46722C16.6666 5.1011 16.6666 4.51184 16.6666 3.33333V2.5" stroke="#A61A17" stroke-width="1.25" stroke-linecap="round" stroke-linejoin="round"/>
<path d="M6.66665 14.1667H5.83331C4.6548 14.1667 4.06555 14.1667 3.69943 14.5327C3.33331 14.8989 3.33331 15.4882 3.33331 16.6667V17.5" stroke="#A61A17" stroke-width="1.25" stroke-linecap="round" stroke-linejoin="round"/>
</svg>
