<svg width="24" height="22" viewBox="0 0 24 22" fill="none" xmlns="http://www.w3.org/2000/svg">
<path d="M18.7663 5.23375C18.3753 4.84262 17.9111 4.53234 17.4002 4.32065C16.8893 4.10896 16.3417 4 15.7887 4C15.2357 4 14.6881 4.10896 14.1772 4.32065C13.6663 4.53234 13.2021 4.84262 12.8112 5.23375L11.9998 6.04511L11.1884 5.23375C10.3987 4.44406 9.32768 4.00041 8.21089 4.00041C7.09409 4.00041 6.02303 4.44406 5.23334 5.23375C4.44365 6.02344 4 7.0945 4 8.2113C4 9.32809 4.44365 10.3991 5.23334 11.1888L6.0447 12.0002L11.9998 17.9553L17.9549 12.0002L18.7663 11.1888C19.1574 10.7979 19.4677 10.3337 19.6794 9.82281C19.891 9.31191 20 8.76431 20 8.2113C20 7.65828 19.891 7.11068 19.6794 6.59978C19.4677 6.08888 19.1574 5.6247 18.7663 5.23375V5.23375Z" stroke="#C21617" stroke-width="2" stroke-linecap="round" stroke-linejoin="round"/>
</svg>
