<svg width="20" height="20" viewBox="0 0 20 20" fill="none" xmlns="http://www.w3.org/2000/svg">
<g clip-path="url(#clip0_99_510)">
<path d="M2.91669 15C2.91669 13.8215 2.91669 13.2322 3.2828 12.8661C3.64892 12.5 4.23818 12.5 5.41669 12.5H5.83335C6.61903 12.5 7.01186 12.5 7.25595 12.7441C7.50002 12.9882 7.50002 13.381 7.50002 14.1667V18.3333H2.91669V15Z" stroke="#3B82F6" stroke-width="1.65" stroke-linecap="round" stroke-linejoin="round"/>
<path d="M12.5 15.8333C12.5 15.0477 12.5 14.6548 12.7441 14.4107C12.9882 14.1667 13.381 14.1667 14.1667 14.1667H14.5833C15.7618 14.1667 16.3511 14.1667 16.7172 14.5327C17.0833 14.8989 17.0833 15.4882 17.0833 16.6667V18.3333H12.5V15.8333Z" stroke="#3B82F6" stroke-width="1.65" stroke-linecap="round" stroke-linejoin="round"/>
<path d="M1.66669 18.3333H18.3334" stroke="#3B82F6" stroke-width="1.65" stroke-linecap="round" stroke-linejoin="round"/>
<path d="M7.5 13.3333C7.5 12.1548 7.5 11.5656 7.86612 11.1994C8.23223 10.8333 8.8215 10.8333 10 10.8333C11.1785 10.8333 11.7678 10.8333 12.1339 11.1994C12.5 11.5656 12.5 12.1548 12.5 13.3333V18.3333H7.5V13.3333Z" stroke="#3B82F6" stroke-width="1.65" stroke-linecap="round" stroke-linejoin="round"/>
<path d="M10.5759 2.14805L11.1625 3.33095C11.2425 3.49562 11.4558 3.65356 11.6358 3.6838L12.699 3.86191C13.3789 3.97617 13.5389 4.47352 13.0489 4.96416L12.2224 5.79757C12.0824 5.93871 12.0058 6.21091 12.0491 6.40582L12.2857 7.43749C12.4724 8.25409 12.0424 8.56999 11.3259 8.1432L10.3293 7.54839C10.1493 7.44085 9.85269 7.44085 9.66935 7.54839L8.67277 8.1432C7.95952 8.56999 7.52624 8.25073 7.71288 7.43749L7.94952 6.40582C7.99285 6.21091 7.91619 5.93871 7.77621 5.79757L6.94964 4.96416C6.46302 4.47352 6.61967 3.97617 7.29959 3.86191L8.36277 3.6838C8.53944 3.65356 8.75277 3.49562 8.83277 3.33095L9.41935 2.14805C9.73935 1.50619 10.2593 1.50619 10.5759 2.14805Z" stroke="#3B82F6" stroke-width="1.65" stroke-linecap="round" stroke-linejoin="round"/>
</g>
<defs>
<clipPath id="clip0_99_510">
<rect width="20" height="20" fill="white"/>
</clipPath>
</defs>
</svg>
