<svg width="24" height="26" viewBox="0 0 24 26" fill="none" xmlns="http://www.w3.org/2000/svg">
<path d="M13.916 2.31399C13.0135 2.00987 12.0515 1.92495 11.1097 2.06627C10.1678 2.20759 9.27317 2.57109 8.49965 3.1267C7.72613 3.68231 7.09598 4.41408 6.66132 5.26149C6.22666 6.1089 5.99997 7.04761 5.99999 7.99999C5.99999 12.499 4.58899 13.956 3.25999 15.327C3.12957 15.4703 3.0436 15.6485 3.01255 15.8398C2.9815 16.0311 3.00671 16.2273 3.0851 16.4045C3.1635 16.5817 3.2917 16.7324 3.45413 16.8381C3.61655 16.9438 3.80619 17.0001 3.99999 17H20C20.1938 17.0001 20.3834 16.9438 20.5459 16.8381C20.7083 16.7324 20.8365 16.5817 20.9149 16.4045C20.9933 16.2273 21.0185 16.0311 20.9874 15.8398C20.9564 15.6485 20.8704 15.4703 20.74 15.327C20.5342 15.1151 20.339 14.8931 20.155 14.662" stroke="white" stroke-width="2" stroke-linecap="round" stroke-linejoin="round"/>
<path d="M10.268 21C10.4435 21.304 10.696 21.5565 11 21.732C11.3041 21.9075 11.6489 21.9999 12 21.9999C12.3511 21.9999 12.6959 21.9075 13 21.732C13.304 21.5565 13.5565 21.304 13.732 21" stroke="white" stroke-width="2" stroke-linecap="round" stroke-linejoin="round"/>
<path d="M18 13C19.6569 13 21 11.6569 21 10C21 8.34315 19.6569 7 18 7C16.3431 7 15 8.34315 15 10C15 11.6569 16.3431 13 18 13Z" stroke="white" stroke-width="2" stroke-linecap="round" stroke-linejoin="round"/>
</svg>
